{"accessors" : [{"bufferView" : 0, "byteOffset" : 0, "componentType" : 5123, "count" : 2280, "type" : "SCALAR", "max" : [1904], "min" : [0]}, {"bufferView" : 1, "byteOffset" : 0, "componentType" : 5126, "count" : 1905, "type" : "VEC3", "max" : [99.59417724609375, 108.71034240722656, 94.27780151367188], "min" : [-99.59420013427734, -96.81095123291016, -94.27783203125], "name" : "POSITION"}, {"bufferView" : 1, "byteOffset" : 12, "componentType" : 5126, "count" : 1905, "type" : "VEC3", "max" : [0.9999008774757385, 0.999965250492096, 0.9998664259910583], "min" : [-0.9999009966850281, -0.9999653100967407, -0.9998664259910583], "name" : "NORMAL"}, {"bufferView" : 1, "byteOffset" : 24, "componentType" : 5126, "count" : 1905, "type" : "VEC2", "max" : [1.0000001192092896, 1], "min" : [0, 0], "name" : "TEXCOORD_0"}, {"bufferView" : 0, "byteOffset" : 4560, "componentType" : 5123, "count" : 516, "type" : "SCALAR", "max" : [515], "min" : [0]}, {"bufferView" : 2, "byteOffset" : 0, "componentType" : 5126, "count" : 516, "type" : "VEC3", "max" : [-2.594780921936035, 38.812828063964844, 92.62518310546875], "min" : [-18.98105812072754, 27.910873413085938, 81.12181854248047], "name" : "POSITION"}, {"bufferView" : 2, "byteOffset" : 12, "componentType" : 5126, "count" : 516, "type" : "VEC3", "max" : [0.976603090763092, 0.9837085604667664, 0.9586431980133057], "min" : [-0.9981647729873657, -0.9738056063652039, -0.9974385499954224], "name" : "NORMAL"}, {"bufferView" : 2, "byteOffset" : 24, "componentType" : 5126, "count" : 516, "type" : "VEC2", "max" : [1, 1], "min" : [0, 0.009424090385437012], "name" : "TEXCOORD_0"}, {"bufferView" : 0, "byteOffset" : 5592, "componentType" : 5123, "count" : 516, "type" : "SCALAR", "max" : [515], "min" : [0]}, {"bufferView" : 3, "byteOffset" : 0, "componentType" : 5126, "count" : 516, "type" : "VEC3", "max" : [17.629642486572266, 39.38380432128906, 93.05854034423828], "min" : [1.308821678161621, 28.28725814819336, 81.27025604248047], "name" : "POSITION"}, {"bufferView" : 3, "byteOffset" : 12, "componentType" : 5126, "count" : 516, "type" : "VEC3", "max" : [0.982387900352478, 0.9813516736030579, 0.9642638564109802], "min" : [-0.997555673122406, -0.9735168814659119, -0.9989531636238098], "name" : "NORMAL"}, {"bufferView" : 3, "byteOffset" : 24, "componentType" : 5126, "count" : 516, "type" : "VEC2", "max" : [1, 1], "min" : [0, 0.009424090385437012], "name" : "TEXCOORD_0"}, {"bufferView" : 0, "byteOffset" : 6624, "componentType" : 5123, "count" : 516, "type" : "SCALAR", "max" : [515], "min" : [0]}, {"bufferView" : 4, "byteOffset" : 0, "componentType" : 5126, "count" : 516, "type" : "VEC3", "max" : [13.211122512817383, 30.109729766845703, 94.47411346435547], "min" : [-13.944729804992676, 14.949987411499023, 81.81339263916016], "name" : "POSITION"}, {"bufferView" : 4, "byteOffset" : 12, "componentType" : 5126, "count" : 516, "type" : "VEC3", "max" : [0.9971308708190918, 0.9553945064544678, 0.9880779385566711], "min" : [-0.9515215158462524, -0.9686089754104614, -0.9436650276184082], "name" : "NORMAL"}, {"bufferView" : 4, "byteOffset" : 24, "componentType" : 5126, "count" : 516, "type" : "VEC2", "max" : [1, 1], "min" : [0, 0.009424090385437012], "name" : "TEXCOORD_0"}, {"bufferView" : 0, "byteOffset" : 7656, "componentType" : 5123, "count" : 720, "type" : "SCALAR", "max" : [719], "min" : [0]}, {"bufferView" : 5, "byteOffset" : 0, "componentType" : 5126, "count" : 720, "type" : "VEC3", "max" : [-13.374650955200195, -35.64662551879883, 22.745471954345703], "min" : [-58.8656005859375, -160.1358642578125, -22.745481491088867], "name" : "POSITION"}, {"bufferView" : 5, "byteOffset" : 12, "componentType" : 5126, "count" : 720, "type" : "VEC3", "max" : [1.0000044107437134, 1.0000044107437134, 1.0000044107437134], "min" : [-1.0000044107437134, -1.0000044107437134, -1.0000044107437134], "name" : "NORMAL"}, {"bufferView" : 5, "byteOffset" : 24, "componentType" : 5126, "count" : 720, "type" : "VEC2", "max" : [0.65625, 1.0000001192092896], "min" : [0.3437499701976776, 0], "name" : "TEXCOORD_0"}, {"bufferView" : 0, "byteOffset" : 9096, "componentType" : 5123, "count" : 1200, "type" : "SCALAR", "max" : [1199], "min" : [0]}, {"bufferView" : 6, "byteOffset" : 0, "componentType" : 5126, "count" : 1200, "type" : "VEC3", "max" : [-11.188394546508789, -119.35342407226562, 24.99151039123535], "min" : [-61.171409606933594, -168.8406524658203, -24.991518020629883], "name" : "POSITION"}, {"bufferView" : 6, "byteOffset" : 12, "componentType" : 5126, "count" : 1200, "type" : "VEC3", "max" : [1.0000044107437134, 1.0000044107437134, 0.9990378022193909], "min" : [-0.9991470575332642, -1.0000044107437134, -0.9990378618240356], "name" : "NORMAL"}, {"bufferView" : 6, "byteOffset" : 24, "componentType" : 5126, "count" : 1200, "type" : "VEC2", "max" : [0.65625, 1.0000001192092896], "min" : [0.3437499701976776, 0], "name" : "TEXCOORD_0"}, {"bufferView" : 0, "byteOffset" : 11496, "componentType" : 5123, "count" : 3498, "type" : "SCALAR", "max" : [3497], "min" : [0]}, {"bufferView" : 7, "byteOffset" : 0, "componentType" : 5126, "count" : 3498, "type" : "VEC3", "max" : [8.199478149414062, -130.60159301757812, 91.02091979980469], "min" : [-117.1721420288086, -202.14022827148438, -41.43040466308594], "name" : "POSITION"}, {"bufferView" : 7, "byteOffset" : 12, "componentType" : 5126, "count" : 3498, "type" : "VEC3", "max" : [0.9994310736656189, 1, 0.9986854791641235], "min" : [-0.9992640018463135, -0.9999951720237732, -0.998551070690155], "name" : "NORMAL"}, {"bufferView" : 7, "byteOffset" : 24, "componentType" : 5126, "count" : 3498, "type" : "VEC2", "max" : [1.0000001192092896, 0.6499999761581421], "min" : [0, 0], "name" : "TEXCOORD_0"}, {"bufferView" : 0, "byteOffset" : 18492, "componentType" : 5123, "count" : 240, "type" : "SCALAR", "max" : [239], "min" : [0]}, {"bufferView" : 8, "byteOffset" : 0, "componentType" : 5126, "count" : 240, "type" : "VEC3", "max" : [73.20613861083984, -40.646697998046875, 22.745471954345703], "min" : [4.249784469604492, -155.1357879638672, -22.745481491088867], "name" : "POSITION"}, {"bufferView" : 8, "byteOffset" : 12, "componentType" : 5126, "count" : 240, "type" : "VEC3", "max" : [0.9729358553886414, 0.9729358553886414, 1.0000044107437134], "min" : [-0.9729358553886414, -0.9729360342025757, -1.0000044107437134], "name" : "NORMAL"}, {"bufferView" : 8, "byteOffset" : 24, "componentType" : 5126, "count" : 240, "type" : "VEC2", "max" : [0.65625, 1.0000001192092896], "min" : [0.3437499701976776, 0], "name" : "TEXCOORD_0"}, {"bufferView" : 0, "byteOffset" : 18972, "componentType" : 5123, "count" : 3498, "type" : "SCALAR", "max" : [3497], "min" : [0]}, {"bufferView" : 9, "byteOffset" : 0, "componentType" : 5126, "count" : 3498, "type" : "VEC3", "max" : [144.1716766357422, -130.6016082763672, 73.08837127685547], "min" : [9.112394332885742, -202.14022827148438, -48.443729400634766], "name" : "POSITION"}, {"bufferView" : 9, "byteOffset" : 12, "componentType" : 5126, "count" : 3498, "type" : "VEC3", "max" : [0.9997673630714417, 1, 0.9991422295570374], "min" : [-0.995954155921936, -0.9999951720237732, -0.9982426762580872], "name" : "NORMAL"}, {"bufferView" : 9, "byteOffset" : 24, "componentType" : 5126, "count" : 3498, "type" : "VEC2", "max" : [1.0000001192092896, 0.6499999761581421], "min" : [0, 0], "name" : "TEXCOORD_0"}, {"bufferView" : 0, "byteOffset" : 25968, "componentType" : 5123, "count" : 1200, "type" : "SCALAR", "max" : [1199], "min" : [0]}, {"bufferView" : 10, "byteOffset" : 0, "componentType" : 5126, "count" : 1200, "type" : "VEC3", "max" : [78.18374633789062, -115.26708984375, 23.824432373046875], "min" : [21.116714477539062, -172.36117553710938, -26.158594131469727], "name" : "POSITION"}, {"bufferView" : 10, "byteOffset" : 12, "componentType" : 5126, "count" : 1200, "type" : "VEC3", "max" : [0.9944784045219421, 0.9856922626495361, 0.9990378618240356], "min" : [-0.996852457523346, -0.9856923222541809, -0.9990378022193909], "name" : "NORMAL"}, {"bufferView" : 10, "byteOffset" : 24, "componentType" : 5126, "count" : 1200, "type" : "VEC2", "max" : [0.65625, 1.0000001192092896], "min" : [0.3437499701976776, 0], "name" : "TEXCOORD_0"}, {"bufferView" : 0, "byteOffset" : 28368, "componentType" : 5123, "count" : 1908, "type" : "SCALAR", "max" : [1907], "min" : [0]}, {"bufferView" : 11, "byteOffset" : 0, "componentType" : 5126, "count" : 1908, "type" : "VEC3", "max" : [129.06419372558594, 39.875762939453125, 65.93061828613281], "min" : [2.245208740234375, -64.02725219726562, -12.181331634521484], "name" : "POSITION"}, {"bufferView" : 11, "byteOffset" : 12, "componentType" : 5126, "count" : 1908, "type" : "VEC3", "max" : [0.9893426299095154, 0.9923998713493347, 0.9989527463912964], "min" : [-0.9949133396148682, -0.9901614785194397, -0.9970491528511047], "name" : "NORMAL"}, {"bufferView" : 11, "byteOffset" : 24, "componentType" : 5126, "count" : 1908, "type" : "VEC2", "max" : [1.0000001192092896, 1.0000001192092896], "min" : [0, 0], "name" : "TEXCOORD_0"}, {"bufferView" : 0, "byteOffset" : 32184, "componentType" : 5123, "count" : 2280, "type" : "SCALAR", "max" : [1902], "min" : [0]}, {"bufferView" : 12, "byteOffset" : 0, "componentType" : 5126, "count" : 1903, "type" : "VEC3", "max" : [96.98705291748047, -34.51792526245117, 72.46206665039062], "min" : [59.26142501831055, -63.88469696044922, 35.2502555847168], "name" : "POSITION"}, {"bufferView" : 12, "byteOffset" : 12, "componentType" : 5126, "count" : 1903, "type" : "VEC3", "max" : [0.9966702461242676, 0.9961750507354736, 0.9874193668365479], "min" : [-0.9981809854507446, -0.9997313022613525, -0.986409068107605], "name" : "NORMAL"}, {"bufferView" : 12, "byteOffset" : 24, "componentType" : 5126, "count" : 1903, "type" : "VEC2", "max" : [1.0000001192092896, 1], "min" : [0, 0], "name" : "TEXCOORD_0"}, {"bufferView" : 0, "byteOffset" : 36744, "componentType" : 5123, "count" : 2280, "type" : "SCALAR", "max" : [1901], "min" : [0]}, {"bufferView" : 13, "byteOffset" : 0, "componentType" : 5126, "count" : 1902, "type" : "VEC3", "max" : [102.92035675048828, -39.62651062011719, 87.05802154541016], "min" : [78.81261444091797, -65.6209487915039, 42.92549514770508], "name" : "POSITION"}, {"bufferView" : 13, "byteOffset" : 12, "componentType" : 5126, "count" : 1902, "type" : "VEC3", "max" : [0.9961490035057068, 0.9997588992118835, 0.9756259918212891], "min" : [-0.9964792132377625, -0.9971184134483337, -0.9999573826789856], "name" : "NORMAL"}, {"bufferView" : 13, "byteOffset" : 24, "componentType" : 5126, "count" : 1902, "type" : "VEC2", "max" : [1.0000001192092896, 1], "min" : [0, 0], "name" : "TEXCOORD_0"}, {"bufferView" : 0, "byteOffset" : 41304, "componentType" : 5123, "count" : 2280, "type" : "SCALAR", "max" : [1900], "min" : [0]}, {"bufferView" : 14, "byteOffset" : 0, "componentType" : 5126, "count" : 1901, "type" : "VEC3", "max" : [99.56613159179688, -35.332733154296875, 82.13551330566406], "min" : [66.13897705078125, -63.96101379394531, 42.501495361328125], "name" : "POSITION"}, {"bufferView" : 14, "byteOffset" : 12, "componentType" : 5126, "count" : 1901, "type" : "VEC3", "max" : [0.9869993329048157, 0.9929497241973877, 0.9990204572677612], "min" : [-0.9864423274993896, -0.9971950054168701, -0.9947463870048523], "name" : "NORMAL"}, {"bufferView" : 14, "byteOffset" : 24, "componentType" : 5126, "count" : 1901, "type" : "VEC2", "max" : [1.0000001192092896, 1], "min" : [0, 0], "name" : "TEXCOORD_0"}, {"bufferView" : 0, "byteOffset" : 45864, "componentType" : 5123, "count" : 1908, "type" : "SCALAR", "max" : [1907], "min" : [0]}, {"bufferView" : 15, "byteOffset" : 0, "componentType" : 5126, "count" : 1908, "type" : "VEC3", "max" : [-52.379364013671875, 33.27708435058594, 96.63372802734375], "min" : [-143.07571411132812, -63.65071105957031, -15.51815414428711], "name" : "POSITION"}, {"bufferView" : 15, "byteOffset" : 12, "componentType" : 5126, "count" : 1908, "type" : "VEC3", "max" : [0.9986000657081604, 0.9977027177810669, 0.9964303374290466], "min" : [-0.989665687084198, -0.9990930557250977, -0.9666803479194641], "name" : "NORMAL"}, {"bufferView" : 15, "byteOffset" : 24, "componentType" : 5126, "count" : 1908, "type" : "VEC2", "max" : [0.7000001072883606, 1.0000001192092896], "min" : [0.20000000298023224, 0], "name" : "TEXCOORD_0"}, {"bufferView" : 0, "byteOffset" : 49680, "componentType" : 5123, "count" : 2280, "type" : "SCALAR", "max" : [1900], "min" : [0]}, {"bufferView" : 16, "byteOffset" : 0, "componentType" : 5126, "count" : 1901, "type" : "VEC3", "max" : [-52.65920639038086, -20.101341247558594, 103.23148345947266], "min" : [-87.69915008544922, -49.59053421020508, 63.51206588745117], "name" : "POSITION"}, {"bufferView" : 16, "byteOffset" : 12, "componentType" : 5126, "count" : 1901, "type" : "VEC3", "max" : [0.9601691961288452, 0.9970636367797852, 0.9868474006652832], "min" : [-0.987663745880127, -0.9962281584739685, -0.9889249801635742], "name" : "NORMAL"}, {"bufferView" : 16, "byteOffset" : 24, "componentType" : 5126, "count" : 1901, "type" : "VEC2", "max" : [1.0000001192092896, 1], "min" : [0, 0], "name" : "TEXCOORD_0"}, {"bufferView" : 0, "byteOffset" : 54240, "componentType" : 5123, "count" : 2280, "type" : "SCALAR", "max" : [1904], "min" : [0]}, {"bufferView" : 17, "byteOffset" : 0, "componentType" : 5126, "count" : 1905, "type" : "VEC3", "max" : [-40.04456329345703, -19.828630447387695, 99.30314636230469], "min" : [-82.80431365966797, -52.01853561401367, 59.553768157958984], "name" : "POSITION"}, {"bufferView" : 17, "byteOffset" : 12, "componentType" : 5126, "count" : 1905, "type" : "VEC3", "max" : [0.991491973400116, 0.9999035596847534, 0.9978916645050049], "min" : [-0.9950302839279175, -0.9986269474029541, -0.9970858693122864], "name" : "NORMAL"}, {"bufferView" : 17, "byteOffset" : 24, "componentType" : 5126, "count" : 1905, "type" : "VEC2", "max" : [1.0000001192092896, 1], "min" : [0, 0], "name" : "TEXCOORD_0"}, {"bufferView" : 0, "byteOffset" : 58800, "componentType" : 5123, "count" : 2280, "type" : "SCALAR", "max" : [1903], "min" : [0]}, {"bufferView" : 18, "byteOffset" : 0, "componentType" : 5126, "count" : 1904, "type" : "VEC3", "max" : [-31.9168643951416, -23.823488235473633, 86.54219055175781], "min" : [-83.64119720458984, -55.29350662231445, 54.83809280395508], "name" : "POSITION"}, {"bufferView" : 18, "byteOffset" : 12, "componentType" : 5126, "count" : 1904, "type" : "VEC3", "max" : [0.9949679970741272, 0.9986642599105835, 0.9891300201416016], "min" : [-0.9989718198776245, -0.9986268281936646, -0.9991507530212402], "name" : "NORMAL"}, {"bufferView" : 18, "byteOffset" : 24, "componentType" : 5126, "count" : 1904, "type" : "VEC2", "max" : [1.0000001192092896, 1], "min" : [0, 0], "name" : "TEXCOORD_0"}], "asset" : {"generator" : "Aspose.3D 24.1.0", "version" : "2.0"}, "buffers" : [{"uri" : "data:application/octet-stream;base64,", "byteLength" : 1077196}], "bufferViews" : [{"buffer" : 0, "byteOffset" : 0, "byteLength" : 63360, "target" : 34963}, {"buffer" : 0, "byteOffset" : 63364, "byteLength" : 72960, "byteStride" : 32, "target" : 34962}, {"buffer" : 0, "byteOffset" : 136328, "byteLength" : 16512, "byteStride" : 32, "target" : 34962}, {"buffer" : 0, "byteOffset" : 152844, "byteLength" : 16512, "byteStride" : 32, "target" : 34962}, {"buffer" : 0, "byteOffset" : 169360, "byteLength" : 16512, "byteStride" : 32, "target" : 34962}, {"buffer" : 0, "byteOffset" : 185876, "byteLength" : 23040, "byteStride" : 32, "target" : 34962}, {"buffer" : 0, "byteOffset" : 208920, "byteLength" : 38400, "byteStride" : 32, "target" : 34962}, {"buffer" : 0, "byteOffset" : 247324, "byteLength" : 111936, "byteStride" : 32, "target" : 34962}, {"buffer" : 0, "byteOffset" : 359264, "byteLength" : 7680, "byteStride" : 32, "target" : 34962}, {"buffer" : 0, "byteOffset" : 366948, "byteLength" : 111936, "byteStride" : 32, "target" : 34962}, {"buffer" : 0, "byteOffset" : 478888, "byteLength" : 38400, "byteStride" : 32, "target" : 34962}, {"buffer" : 0, "byteOffset" : 517292, "byteLength" : 61056, "byteStride" : 32, "target" : 34962}, {"buffer" : 0, "byteOffset" : 578352, "byteLength" : 72960, "byteStride" : 32, "target" : 34962}, {"buffer" : 0, "byteOffset" : 651316, "byteLength" : 72960, "byteStride" : 32, "target" : 34962}, {"buffer" : 0, "byteOffset" : 724280, "byteLength" : 72960, "byteStride" : 32, "target" : 34962}, {"buffer" : 0, "byteOffset" : 797244, "byteLength" : 61056, "byteStride" : 32, "target" : 34962}, {"buffer" : 0, "byteOffset" : 858304, "byteLength" : 72960, "byteStride" : 32, "target" : 34962}, {"buffer" : 0, "byteOffset" : 931268, "byteLength" : 72960, "byteStride" : 32, "target" : 34962}, {"buffer" : 0, "byteOffset" : 1004232, "byteLength" : 72960, "byteStride" : 32, "target" : 34962}], "materials" : [{"name" : "standardSurface1", "pbrMetallicRoughness" : {"baseColorFactor" : [0, 0, 0, 1], "metallicFactor" : 1, "roughnessFactor" : 1}, "emissiveFactor" : [0, 0, 0], "alphaMode" : "OPAQUE", "doubleSided" : false}, {"name" : "standardSurface1", "pbrMetallicRoughness" : {"baseColorFactor" : [0, 0, 0, 1], "metallicFactor" : 1, "roughnessFactor" : 1}, "emissiveFactor" : [0, 0, 0], "alphaMode" : "OPAQUE", "doubleSided" : false}, {"name" : "standardSurface1", "pbrMetallicRoughness" : {"baseColorFactor" : [0, 0, 0, 1], "metallicFactor" : 1, "roughnessFactor" : 1}, "emissiveFactor" : [0, 0, 0], "alphaMode" : "OPAQUE", "doubleSided" : false}, {"name" : "standardSurface1", "pbrMetallicRoughness" : {"baseColorFactor" : [0, 0, 0, 1], "metallicFactor" : 1, "roughnessFactor" : 1}, "emissiveFactor" : [0, 0, 0], "alphaMode" : "OPAQUE", "doubleSided" : false}, {"name" : "standardSurface1", "pbrMetallicRoughness" : {"baseColorFactor" : [0, 0, 0, 1], "metallicFactor" : 1, "roughnessFactor" : 1}, "emissiveFactor" : [0, 0, 0], "alphaMode" : "OPAQUE", "doubleSided" : false}, {"name" : "standardSurface1", "pbrMetallicRoughness" : {"baseColorFactor" : [0, 0, 0, 1], "metallicFactor" : 1, "roughnessFactor" : 1}, "emissiveFactor" : [0, 0, 0], "alphaMode" : "OPAQUE", "doubleSided" : false}, {"name" : "standardSurface1", "pbrMetallicRoughness" : {"baseColorFactor" : [0, 0, 0, 1], "metallicFactor" : 1, "roughnessFactor" : 1}, "emissiveFactor" : [0, 0, 0], "alphaMode" : "OPAQUE", "doubleSided" : false}, {"name" : "standardSurface1", "pbrMetallicRoughness" : {"baseColorFactor" : [0, 0, 0, 1], "metallicFactor" : 1, "roughnessFactor" : 1}, "emissiveFactor" : [0, 0, 0], "alphaMode" : "OPAQUE", "doubleSided" : false}, {"name" : "standardSurface1", "pbrMetallicRoughness" : {"baseColorFactor" : [0, 0, 0, 1], "metallicFactor" : 1, "roughnessFactor" : 1}, "emissiveFactor" : [0, 0, 0], "alphaMode" : "OPAQUE", "doubleSided" : false}, {"name" : "standardSurface1", "pbrMetallicRoughness" : {"baseColorFactor" : [0, 0, 0, 1], "metallicFactor" : 1, "roughnessFactor" : 1}, "emissiveFactor" : [0, 0, 0], "alphaMode" : "OPAQUE", "doubleSided" : false}, {"name" : "standardSurface1", "pbrMetallicRoughness" : {"baseColorFactor" : [0, 0, 0, 1], "metallicFactor" : 1, "roughnessFactor" : 1}, "emissiveFactor" : [0, 0, 0], "alphaMode" : "OPAQUE", "doubleSided" : false}, {"name" : "standardSurface1", "pbrMetallicRoughness" : {"baseColorFactor" : [0, 0, 0, 1], "metallicFactor" : 1, "roughnessFactor" : 1}, "emissiveFactor" : [0, 0, 0], "alphaMode" : "OPAQUE", "doubleSided" : false}, {"name" : "standardSurface1", "pbrMetallicRoughness" : {"baseColorFactor" : [0, 0, 0, 1], "metallicFactor" : 1, "roughnessFactor" : 1}, "emissiveFactor" : [0, 0, 0], "alphaMode" : "OPAQUE", "doubleSided" : false}, {"name" : "standardSurface1", "pbrMetallicRoughness" : {"baseColorFactor" : [0, 0, 0, 1], "metallicFactor" : 1, "roughnessFactor" : 1}, "emissiveFactor" : [0, 0, 0], "alphaMode" : "OPAQUE", "doubleSided" : false}, {"name" : "standardSurface1", "pbrMetallicRoughness" : {"baseColorFactor" : [0, 0, 0, 1], "metallicFactor" : 1, "roughnessFactor" : 1}, "emissiveFactor" : [0, 0, 0], "alphaMode" : "OPAQUE", "doubleSided" : false}, {"name" : "standardSurface1", "pbrMetallicRoughness" : {"baseColorFactor" : [0, 0, 0, 1], "metallicFactor" : 1, "roughnessFactor" : 1}, "emissiveFactor" : [0, 0, 0], "alphaMode" : "OPAQUE", "doubleSided" : false}, {"name" : "standardSurface1", "pbrMetallicRoughness" : {"baseColorFactor" : [0, 0, 0, 1], "metallicFactor" : 1, "roughnessFactor" : 1}, "emissiveFactor" : [0, 0, 0], "alphaMode" : "OPAQUE", "doubleSided" : false}, {"name" : "standardSurface1", "pbrMetallicRoughness" : {"baseColorFactor" : [0, 0, 0, 1], "metallicFactor" : 1, "roughnessFactor" : 1}, "emissiveFactor" : [0, 0, 0], "alphaMode" : "OPAQUE", "doubleSided" : false}], "meshes" : [{"primitives" : [{"attributes" : {"POSITION" : 1, "NORMAL" : 2, "TEXCOORD_0" : 3}, "indices" : 0, "material" : 0, "mode" : 4}], "name" : ""}, {"primitives" : [{"attributes" : {"POSITION" : 5, "NORMAL" : 6, "TEXCOORD_0" : 7}, "indices" : 4, "material" : 1, "mode" : 4}], "name" : ""}, {"primitives" : [{"attributes" : {"POSITION" : 9, "NORMAL" : 10, "TEXCOORD_0" : 11}, "indices" : 8, "material" : 2, "mode" : 4}], "name" : ""}, {"primitives" : [{"attributes" : {"POSITION" : 13, "NORMAL" : 14, "TEXCOORD_0" : 15}, "indices" : 12, "material" : 3, "mode" : 4}], "name" : ""}, {"primitives" : [{"attributes" : {"POSITION" : 17, "NORMAL" : 18, "TEXCOORD_0" : 19}, "indices" : 16, "material" : 4, "mode" : 4}], "name" : ""}, {"primitives" : [{"attributes" : {"POSITION" : 21, "NORMAL" : 22, "TEXCOORD_0" : 23}, "indices" : 20, "material" : 5, "mode" : 4}], "name" : ""}, {"primitives" : [{"attributes" : {"POSITION" : 25, "NORMAL" : 26, "TEXCOORD_0" : 27}, "indices" : 24, "material" : 6, "mode" : 4}], "name" : ""}, {"primitives" : [{"attributes" : {"POSITION" : 29, "NORMAL" : 30, "TEXCOORD_0" : 31}, "indices" : 28, "material" : 7, "mode" : 4}], "name" : ""}, {"primitives" : [{"attributes" : {"POSITION" : 33, "NORMAL" : 34, "TEXCOORD_0" : 35}, "indices" : 32, "material" : 8, "mode" : 4}], "name" : ""}, {"primitives" : [{"attributes" : {"POSITION" : 37, "NORMAL" : 38, "TEXCOORD_0" : 39}, "indices" : 36, "material" : 9, "mode" : 4}], "name" : ""}, {"primitives" : [{"attributes" : {"POSITION" : 41, "NORMAL" : 42, "TEXCOORD_0" : 43}, "indices" : 40, "material" : 10, "mode" : 4}], "name" : ""}, {"primitives" : [{"attributes" : {"POSITION" : 45, "NORMAL" : 46, "TEXCOORD_0" : 47}, "indices" : 44, "material" : 11, "mode" : 4}], "name" : ""}, {"primitives" : [{"attributes" : {"POSITION" : 49, "NORMAL" : 50, "TEXCOORD_0" : 51}, "indices" : 48, "material" : 12, "mode" : 4}], "name" : ""}, {"primitives" : [{"attributes" : {"POSITION" : 53, "NORMAL" : 54, "TEXCOORD_0" : 55}, "indices" : 52, "material" : 13, "mode" : 4}], "name" : ""}, {"primitives" : [{"attributes" : {"POSITION" : 57, "NORMAL" : 58, "TEXCOORD_0" : 59}, "indices" : 56, "material" : 14, "mode" : 4}], "name" : ""}, {"primitives" : [{"attributes" : {"POSITION" : 61, "NORMAL" : 62, "TEXCOORD_0" : 63}, "indices" : 60, "material" : 15, "mode" : 4}], "name" : ""}, {"primitives" : [{"attributes" : {"POSITION" : 65, "NORMAL" : 66, "TEXCOORD_0" : 67}, "indices" : 64, "material" : 16, "mode" : 4}], "name" : ""}, {"primitives" : [{"attributes" : {"POSITION" : 69, "NORMAL" : 70, "TEXCOORD_0" : 71}, "indices" : 68, "material" : 17, "mode" : 4}], "name" : ""}], "nodes" : [{"mesh" : 1, "name" : "OJO"}, {"mesh" : 2, "name" : "OJO2"}, {"mesh" : 3, "name" : "boquita"}, {"mesh" : 5, "name" : "CALECETIN1"}, {"mesh" : 6, "name" : "ZAPATP1"}, {"children" : [3, 4], "mesh" : 4, "name" : "pierna1"}, {"mesh" : 8, "name" : "ZAPATO2"}, {"mesh" : 9, "name" : "CALCETIN2"}, {"children" : [6, 7], "mesh" : 7, "name" : "pierna2"}, {"mesh" : 12, "name" : "DEDO6"}, {"mesh" : 13, "name" : "DEDO5"}, {"children" : [9, 10], "mesh" : 11, "name" : "DEDO4"}, {"children" : [11], "mesh" : 10, "name" : "brazo2"}, {"mesh" : 15, "name" : "DEDO1"}, {"mesh" : 16, "name" : "DEDO2"}, {"mesh" : 17, "name" : "DEDO3"}, {"children" : [13, 14, 15], "mesh" : 14, "name" : "BRAZO"}, {"children" : [0, 1, 2, 5, 8, 12, 16], "mesh" : 0, "name" : "cuerpo"}], "scene" : 0, "scenes" : [{"nodes" : [17]}]}