<?xml version="1.0" standalone="no"?>
<!DOCTYPE svg PUBLIC "-//W3C//DTD SVG 20010904//EN"
 "http://www.w3.org/TR/2001/REC-SVG-20010904/DTD/svg10.dtd">
<svg version="1.0" xmlns="http://www.w3.org/2000/svg"
 width="8922.000000pt" height="8922.000000pt" viewBox="0 0 8922.000000 8922.000000"
 preserveAspectRatio="xMidYMid meet">

<g transform="translate(0.000000,8922.000000) scale(0.100000,-0.100000)"
fill="#000000" stroke="none">
<path d="M43575 89204 c-1189 -37 -1861 -73 -2765 -149 -6291 -531 -12366
-2384 -17875 -5453 -3151 -1755 -6078 -3887 -8740 -6366 -851 -793 -1870
-1827 -2656 -2696 -3425 -3787 -6160 -8094 -8111 -12770 -2012 -4823 -3148
-9937 -3378 -15205 -26 -593 -31 -833 -37 -1640 -8 -1205 16 -2091 87 -3205
567 -8867 3753 -17308 9194 -24355 933 -1209 1948 -2390 3045 -3544 277 -292
1190 -1205 1482 -1482 1154 -1097 2335 -2112 3544 -3045 7268 -5612 16019
-8823 25175 -9239 781 -35 1024 -40 2070 -40 1151 0 1541 10 2475 60 7710 420
15139 2824 21630 7000 2212 1423 4281 3030 6235 4840 816 757 1763 1709 2540
2555 5675 6184 9492 13841 10994 22060 389 2128 609 4141 701 6430 37 918 35
2418 -5 3430 -225 5656 -1497 11147 -3775 16285 -573 1291 -1242 2622 -1933
3845 -1565 2769 -3427 5370 -5541 7745 -1128 1266 -2405 2543 -3666 3666
-2539 2260 -5325 4223 -8295 5847 -843 461 -1842 963 -2725 1369 -4326 1993
-8950 3274 -13700 3797 -1126 124 -2043 190 -3420 247 -236 10 -2311 20 -2550
13z m8667 -4788 c272 -53 506 -225 625 -461 24 -46 7703 -18367 7739 -18463
29 -75 54 -213 54 -292 0 -85 -26 -217 -61 -316 -68 -186 137 26 -3316 -3425
-2135 -2133 -3187 -3178 -3226 -3203 -80 -52 -170 -91 -269 -118 -118 -31
-308 -31 -428 0 -250 67 -461 234 -570 452 -20 41 -349 982 -730 2090 -381
1108 -706 2042 -722 2075 -237 473 -862 628 -1292 321 -134 -95 -183 -162
-448 -607 -136 -228 -1205 -2021 -2375 -3986 -1171 -1965 -2151 -3600 -2178
-3635 -110 -138 -282 -247 -463 -295 -222 -59 -480 -21 -678 98 -31 19 -648
535 -1372 1148 -724 613 -1335 1127 -1357 1144 -57 41 -178 101 -260 127 -107
34 -328 40 -448 11 -247 -59 -451 -213 -571 -432 -19 -35 -1036 -2726 -2260
-5979 -1223 -3253 -2270 -6025 -2324 -6160 -938 -2305 -1344 -4530 -1192
-6520 239 -3118 1839 -5752 4635 -7635 1615 -1087 3616 -1877 5547 -2190 1252
-202 2291 -192 3528 36 930 172 1926 475 2840 866 645 276 1327 630 1900 986
883 549 1633 1147 2345 1868 853 864 1511 1783 2030 2834 638 1293 987 2610
1101 4165 21 295 30 1065 15 1400 -60 1362 -308 2729 -761 4204 -146 474
-1848 6579 -1891 6781 -7 33 -12 110 -12 170 2 186 63 369 174 519 49 66 6815
6554 6906 6622 168 126 401 188 612 164 118 -14 252 -57 350 -113 93 -52 227
-178 284 -265 76 -116 1067 -2096 1667 -3332 1357 -2794 2342 -5022 3140
-7100 1407 -3666 2173 -6797 2344 -9580 55 -880 47 -2008 -20 -3150 -243
-4147 -1288 -8012 -3072 -11360 -2505 -4703 -6407 -8313 -11332 -10485 -3106
-1370 -6570 -2149 -10290 -2315 -921 -41 -2076 -41 -2975 0 -2588 118 -5033
534 -7345 1250 -4829 1495 -8911 4268 -11925 8100 -2755 3503 -4557 7846
-5259 12675 -225 1546 -346 3219 -346 4780 0 2126 328 4294 1004 6653 496
1727 1172 3561 2191 5937 607 1417 897 2047 1820 3960 895 1855 1323 2782
1649 3575 42 102 1525 4348 3296 9435 1772 5088 3234 9278 3250 9312 88 190
256 349 454 432 125 52 196 65 346 64 162 0 250 -20 385 -88 72 -35 892 -642
4055 -2996 2843 -2116 3987 -2962 4044 -2991 216 -108 501 -119 724 -26 83 35
195 105 266 169 31 27 1894 2503 4846 6439 2996 3995 4815 6412 4846 6439 133
117 288 193 452 221 78 13 226 11 304 -4z"/>
</g>
</svg>
